<svg xmlns="http://www.w3.org/2000/svg" version="1.1" xmlns:xlink="http://www.w3.org/1999/xlink" xmlns:svgjs="http://svgjs.dev/svgjs" width="1000" height="1000" viewBox="0 0 1000 1000"><rect width="1000" height="1000" fill="#000000"></rect><g transform="matrix(0.7,0,0,0.7,149.84897959183672,150.19913061224486)"><svg viewBox="0 0 343 343" data-background-color="#ed2647" preserveAspectRatio="xMidYMid meet" height="999" width="1000" xmlns="http://www.w3.org/2000/svg" xmlns:xlink="http://www.w3.org/1999/xlink"><g id="tight-bounds" transform="matrix(1,0,0,1,0.07400000000001228,0.07400000000001228)"><svg viewBox="0 0 342.8515585177538 342.8515585177538" height="342.8515585177538" width="342.8515585177538"><g><svg></svg></g><g><svg viewBox="0 0 342.8515585177538 342.8515585177538" height="342.8515585177538" width="342.8515585177538"><g><path d="M0 171.426c0-94.676 76.75-171.426 171.426-171.426 94.676 0 171.426 76.75 171.426 171.426 0 94.676-76.75 171.426-171.426 171.426-94.676 0-171.426-76.75-171.426-171.426zM171.426 341.066c93.69 0 169.641-75.951 169.64-169.64 0-93.69-75.951-169.641-169.64-169.641-93.69 0-169.641 75.951-169.641 169.641 0 93.69 75.951 169.641 169.641 169.64z" data-fill-palette-color="tertiary" fill="#8d021f" stroke="transparent"></path><ellipse rx="164.56874808852183" ry="164.56874808852183" cx="171.4257792588769" cy="171.4257792588769" fill="#8d021f" stroke="transparent" stroke-width="0" fill-opacity="1" data-fill-palette-color="tertiary"></ellipse></g><g transform="matrix(1,0,0,1,64.84655864529836,161.5276524341338)"><svg viewBox="0 0 213.15844122715708 19.796253649486182" height="19.796253649486182" width="213.15844122715708"><g><svg viewBox="0 0 213.15844122715708 19.796253649486182" height="19.796253649486182" width="213.15844122715708"><g><svg viewBox="0 0 213.15844122715708 19.796253649486182" height="19.796253649486182" width="213.15844122715708"><g><svg viewBox="0 0 213.15844122715708 19.796253649486182" height="19.796253649486182" width="213.15844122715708"><g><svg viewBox="0 0 213.15844122715708 19.796253649486182" height="19.796253649486182" width="213.15844122715708"><g><svg viewBox="0 0 213.15844122715708 19.796253649486182" height="19.796253649486182" width="213.15844122715708"><g transform="matrix(1,0,0,1,0,0)"><svg width="213.15844122715708" viewBox="2.8600001335144043 -36.040000915527344 387.9800109863281 36.040000915527344" height="19.796253649486182" data-palette-color="#ed2647"><path d="M23.29-19.65L23.29-32.4 34.18-32.4 34.18 0 23.36 0 23.36-13.16 15.36-13.16 15.36-19.65 23.29-19.65ZM13.65-32.4L13.65 0 2.86 0 2.86-32.4 13.65-32.4ZM56.64-25.93L67.43-25.93 67.43 0 56.64 0 56.64-25.93ZM50.12-25.93L50.12-6.47 54.93-6.47 54.93-3.25 51.8 0 45.82 0 39.33-6.47 39.33-25.93 50.12-25.93ZM83.39 0L72.5 0 72.5-25.93 83.39-25.93 83.39 0ZM89.79 0L89.79-19.46 85.15-19.46 85.15-22.29 88.76-25.93 94.77-25.93 100.61-20.09 100.61 0 89.79 0ZM116.69-32.4L116.69-6.47 123.82-6.47 123.82 0 112.39 0 105.9-6.47 105.9-19.46 103.75-19.46 103.75-25.93 105.9-25.93 105.9-28.74 116.69-32.4ZM124.21-19.46L118.4-19.46 118.4-25.93 124.21-25.93 124.21-19.46ZM138.52-25.93L138.52 0 134.19 0 127.72-6.47 127.72-19.46 134.19-25.93 138.52-25.93ZM155.85-10.4L140.22-10.4 140.22-14.92 145.91-14.92 145.91-19.46 140.22-19.46 140.22-25.93 149.38-25.93 155.85-19.46 155.85-10.4ZM151.5 0L140.22 0 140.22-6.05 154.73-6.05 154.73-3.25 151.5 0ZM177.55-13.16L177.55-19.46 172.96-19.46 172.96-22.29 176.57-25.93 183.12-25.93 188.37-19.87 188.37-13.16 177.55-13.16ZM171.23 0L160.44 0 160.44-25.93 171.23-25.93 171.23 0ZM224.18 0L204.96-32.4 216.44-32.4 225.13-17.99 231.96-29.71 231.96-13.4 224.18 0ZM244.34 0L233.55 0 233.55-32.4 244.34-32.4 244.34 0ZM215.02 0L204.94 0 204.94-29.39 215.02-12.48 215.02 0ZM277.37 0L266.83 0 266.83-19.46 251.47-19.46 251.47-22.68 254.72-25.93 270.9-25.93 277.37-19.46 277.37 0ZM253.64-15.09L265.12-15.09 265.12-10.6 259.55-10.6 259.55-6.05 265.12-6.05 265.12-3.2 261.89 0 253.64 0 249.3-4.27 249.3-10.77 253.64-15.09ZM292.8-25.93L292.8 0 288.48 0 282.01-6.47 282.01-19.46 288.48-25.93 292.8-25.93ZM299.29-19.46L294.51-19.46 294.51-25.93 303.62-25.93 310.08-19.46 310.08-15.58 299.29-15.58 299.29-19.46ZM303.62 0L294.51 0 294.51-6.05 299.29-6.05 299.29-9.3 310.08-9.3 310.08-6.47 303.62 0ZM314.55 0L314.55-25.93 325.37-25.93 325.37 0 314.55 0ZM314.55-29.15L314.55-36.04 325.37-36.04 325.37-29.15 314.55-29.15ZM358.1 0L347.56 0 347.56-19.46 332.2-19.46 332.2-22.68 335.45-25.93 351.63-25.93 358.1-19.46 358.1 0ZM334.37-15.09L345.85-15.09 345.85-10.6 340.28-10.6 340.28-6.05 345.85-6.05 345.85-3.2 342.62 0 334.37 0 330.03-4.27 330.03-10.77 334.37-15.09ZM362.76-20.12L368.6-25.93 372.92-25.93 372.92-16.77 385.22-16.77 390.84-11.11 390.84-6.05 384.81 0 380.05 0 380.05-9.79 368.38-9.79 362.76-15.19 362.76-20.12ZM373.55-7.42L373.55-4.76 378.34-4.76 378.34 0 367.23-0.02 362.74-5.35 362.74-7.42 373.55-7.42ZM380.05-19.14L380.05-21.17 374.63-21.17 374.63-25.93 386.1-25.93 389.96-22.07 389.96-19.14 380.05-19.14Z" opacity="1" transform="matrix(1,0,0,1,0,0)" fill="#ed2647" class="undefined-text-0" data-fill-palette-color="quaternary" id="text-0"></path></svg></g></svg></g></svg></g></svg></g><g></g></svg></g></svg></g></svg></g></svg></g><defs></defs></svg><rect width="342.8515585177538" height="342.8515585177538" fill="none" stroke="none" visibility="hidden"></rect></g></svg></g></svg>